<svg width="52" height="52" viewBox="0 0 52 52" fill="none" xmlns="http://www.w3.org/2000/svg">
<circle cx="26" cy="26" r="26" fill="#353638"/>
<path d="M30.714 17.1791L30.7163 17.1739C30.7958 16.9991 30.8642 16.7243 30.9166 16.3397L30.934 16.2122H31.0626H31.6727H31.828L31.8199 16.3673C31.8021 16.7046 31.7755 17.0945 31.7402 17.5369C31.7227 17.9773 31.7051 18.5674 31.6875 19.3074V19.3124V19.3166V19.3209V19.3252V19.3294V19.3337V19.338V19.3423V19.3466V19.3509V19.3552V19.3596V19.3639V19.3682V19.3725V19.3769V19.3812V19.3856V19.3899V19.3943V19.3987V19.403V19.4074V19.4118V19.4162V19.4206V19.425V19.4294V19.4338V19.4382V19.4426V19.447V19.4515V19.4559V19.4603V19.4648V19.4692V19.4737V19.4782V19.4826V19.4871V19.4916V19.4961V19.5006V19.5051V19.5096V19.5141V19.5186V19.5231V19.5276V19.5322V19.5367V19.5412V19.5458V19.5503V19.5549V19.5595V19.564V19.5686V19.5732V19.5778V19.5824V19.5869V19.5915V19.5961V19.6008V19.6054V19.61V19.6146V19.6193V19.6239V19.6285V19.6332V19.6378V19.6425V19.6472V19.6518V19.6565V19.6612V19.6659V19.6706V19.6753V19.68V19.6847V19.6894V19.6941V19.6989V19.7036V19.7083V19.7131V19.7178V19.7226V19.7273V19.7321V19.7369V19.7417V19.7464V19.7512V19.756V19.7608V19.7656V19.7704V19.7752V19.78V19.7849V19.7897V19.7945V19.7994V19.8042V19.8091V19.8139V19.8188V19.8237V19.8285V19.8334V19.8383V19.8432V19.8481V19.853V19.8579V19.8628V19.8677V19.8726V19.8776V19.8825V19.8875V19.8924V19.8973V19.9023V19.9073V19.9122V19.9172V19.9222V19.9272V19.9321V19.9371V19.9421V19.9471V19.9522V19.9572V19.9622V19.9672V19.9723V19.9773V19.9823V19.9874V19.9924V19.9975V20.0026V20.0076V20.0127V20.0178V20.0229V20.028V20.0331V20.0382V20.0433V20.0484V20.0535V20.0586V20.0638V20.0689V20.074V20.0792V20.0843V20.0895V20.0947V20.0998V20.105V20.1102V20.1154V20.1206V20.1258V20.131V20.1362V20.1414V20.1466V20.1518V20.1571V20.1623V20.1675V20.1728V20.178V20.1833V20.1885V20.1938V20.1991V20.2044V20.2096V20.2149V20.2202V20.2255V20.2308V20.2361V20.2415V20.2468V20.2521V20.2574V20.2628V20.2681V20.2735V20.2788V20.2842V20.2896V20.2949V20.3003V20.3057V20.3111V20.3165V20.3219V20.3273V20.3327V20.3381V20.3435V20.3489V20.3544V20.3598V20.3652V20.3707V20.3761V20.3816V20.3871V20.3925V20.398V20.4035V20.409V20.4145V20.42V20.4255V20.431V20.4365V20.442V20.4475V20.4531V20.4586V20.4641V20.4697V20.4752V20.4808V20.4864V20.4919V20.4975V20.5031V20.5087V20.5143V20.5198V20.5254V20.5311V20.5367V20.5423V20.5479V20.5535V20.5592V20.5648V20.5704V20.5761V20.5817V20.5874V20.5931V20.5988V20.6044V20.6101V20.6158V20.6215V20.6272V20.6329V20.6386V20.6443V20.65V20.6558V20.6615V20.6672V20.673V20.6787V20.6845V20.6902V20.696V20.7018V20.7076V20.7133V20.7191V20.7249V20.7307V20.7365V20.7423V20.7481V20.7539V20.7598V20.7656V20.7714V20.7773V20.7831V20.789V20.7948V20.8007V20.8066V20.8124V20.8183V20.8242V20.8301V20.836V20.8419V20.8478V20.8537V20.8596V20.8656V20.8715V20.8774V20.8834V20.8893V20.8952V20.9012V20.9072V20.9131V20.9191V20.9251V20.9311V20.9371V20.943V20.949V20.9551V20.9611V20.9671V20.973V20.9791V20.9851V20.9912V20.9972V21.0033V21.0093V21.0153V21.0215V21.0276V21.0336V21.0396V21.0458V21.0519V21.0579V21.0641V21.0702V21.0763V21.0824V21.0886V21.0946V21.1008V21.107V21.113V21.1192V21.1254V21.1316V21.1378V21.144V21.15V21.1562V21.1624V21.1686V21.1749V21.1811V21.1873V21.1935V21.1997V21.206V21.2122V21.2184V21.2247V21.2309V21.2371V21.2435V21.2496V21.256V21.2623V21.2685V21.2748V21.2812V21.2874V21.2937V21.3V21.3064V21.3127V21.319V21.3254V21.3317V21.3381V21.3444V21.3507V21.3571V21.3634V21.3699V21.3762V21.3826V21.3889V21.3954V21.4017V21.4082V21.4145V21.421V21.4274V21.4338V21.4403V21.4467V21.4531V21.4596V21.466V21.4725V21.4789V21.4854V21.4919V21.4984V21.5049V21.5114V21.5178V21.5243V21.5308V21.5374V21.5439V21.5504V21.5569V21.5635V21.57V21.5766V21.5831V21.5898V21.5962V21.6029V21.6094V21.616V21.6226V21.6291V21.6357V21.6424V21.649V21.6556V21.6621V21.6687V21.6754V21.682V21.6886V21.6953V21.702V21.7087V21.7153V21.7219V21.7286V21.7353V21.742V21.7488V21.7554V21.762V21.7688V21.7754V21.7822V21.789V21.7956V21.8024V21.8092V21.8158V21.8226V21.8294V21.8361V21.8429V21.8497V21.8565V21.8633V21.87V21.8768V21.8836V21.8904V21.8972V21.9041V21.9109V21.9176V21.9246V21.9313V21.9381V21.945V21.9518V21.9587V21.9655V21.9725V21.9794V21.9862V21.9931V22V22.0069V22.0137V22.0206V22.0276V22.0345V22.0414V22.0483V22.0553V22.0622V22.0691V22.0762V22.0831V22.09V22.097V22.104V22.111V22.1179V22.125V22.1319V22.139V22.1459V22.153V22.1599V22.167V22.174V22.181V22.188V22.1951V22.3425H31.5401H30.93H30.7911L30.783 22.2038C30.7309 21.3188 30.5314 20.4689 30.1844 19.6534L30.1838 19.6521L30.1833 19.6509C29.8557 18.8404 29.3832 18.1801 28.7667 17.6664L28.765 17.665L28.7634 17.6635C28.176 17.1433 27.417 16.8783 26.4738 16.8783C25.6396 16.8783 24.9509 17.1239 24.3977 17.6093L24.3977 17.6093C23.8669 18.0903 23.5973 18.738 23.5973 19.5691C23.5973 20.2863 23.7762 20.8824 24.1263 21.3659L24.1263 21.3659C24.4853 21.8441 24.993 22.3188 25.6539 22.7888C26.3426 23.248 27.1551 23.7779 28.0918 24.3787L28.0929 24.3795C28.9623 24.9472 29.7442 25.5158 30.4381 26.0851L30.4381 26.085C31.1395 26.6426 31.6913 27.2654 32.0906 27.9544L32.0906 27.9543C32.5142 28.6543 32.7219 29.5044 32.7219 30.4975C32.7219 31.6717 32.4325 32.6593 31.844 33.4502C31.2603 34.2346 30.4766 34.8167 29.498 35.1972C28.5243 35.5758 27.4627 35.7643 26.3146 35.7643C25.2635 35.7643 24.4141 35.6577 23.7735 35.438L23.7722 35.4376C23.1662 35.2236 22.6379 35 22.1883 34.7662L22.1826 34.7632L22.1771 34.7598C21.7899 34.5133 21.5208 34.4115 21.3544 34.4115C21.2949 34.4115 21.2486 34.4272 21.2094 34.4558C21.1697 34.485 21.1295 34.5334 21.0934 34.611C21.0287 34.7906 20.969 35.0684 20.9169 35.4511L20.8995 35.5786H20.7709H20.1608H20L20.014 35.4184C20.0489 35.0171 20.0665 34.5441 20.0665 33.9989V33.9965L20.0666 33.9941C20.0841 33.4482 20.093 32.7426 20.093 31.8768V31.8754V31.8739C20.1107 30.991 20.1195 29.878 20.1195 28.5347V28.3873H20.2669H20.877H21.0155L21.024 28.5255C21.094 29.6455 21.2864 30.6939 21.6003 31.671C21.9291 32.622 22.4196 33.3856 23.0693 33.9673C23.7262 34.54 24.5996 34.8329 25.7045 34.8329C26.3056 34.8329 26.8417 34.7301 27.3154 34.5275L27.3154 34.5274C27.8027 34.3091 28.1869 33.9831 28.4717 33.548C28.7534 33.1 28.8994 32.5283 28.8994 31.8238C28.8994 31.1223 28.7371 30.5131 28.417 29.991C28.0917 29.4599 27.6356 28.9596 27.0453 28.4909C26.4498 28.018 25.7477 27.5352 24.9383 27.0425L24.9369 27.0417L24.9356 27.0408C24.1015 26.5084 23.3202 25.9669 22.5918 25.4162C21.8544 24.8585 21.2585 24.2271 20.8059 23.5214L20.8047 23.5195L20.8037 23.5175C20.363 22.7832 20.146 21.907 20.146 20.8954C20.146 19.7751 20.4173 18.848 20.9723 18.1265L20.9723 18.1265C21.5196 17.3974 22.2312 16.8598 23.1039 16.5143L23.1049 16.5139C23.9891 16.1711 24.9268 16 25.9168 16C26.9141 16 27.6964 16.1064 28.2526 16.3288C28.7887 16.5433 29.2562 16.7766 29.654 17.0295C29.8589 17.149 30.0221 17.2435 30.1438 17.3131C30.2679 17.3585 30.3793 17.3793 30.4791 17.3793C30.5388 17.3793 30.5808 17.3636 30.6135 17.3379C30.648 17.3108 30.683 17.2639 30.7119 17.1845L30.714 17.1791Z" fill="white"/>
</svg>
