<svg width="80" height="20" viewBox="0 0 80 20" fill="none" xmlns="http://www.w3.org/2000/svg">
<path d="M5.91662 0.200412C6.9069 0.200412 7.66729 0.306513 8.19779 0.518715C8.7283 0.730917 9.18807 0.960803 9.57711 1.20837C9.78931 1.33216 9.9573 1.42942 10.0811 1.50015C10.2226 1.5532 10.3552 1.57973 10.479 1.57973C10.6558 1.57973 10.7796 1.48247 10.8503 1.28795C10.9387 1.09343 11.0095 0.801651 11.0625 0.412614H11.6726C11.6549 0.748601 11.6284 1.13764 11.593 1.57973C11.5753 2.02181 11.5577 2.61421 11.54 3.35692C11.54 4.08194 11.54 5.04569 11.54 6.24817H10.9299C10.8768 5.34631 10.6735 4.47982 10.3198 3.64869C9.98383 2.81757 9.49753 2.13676 8.86092 1.60625C8.242 1.05806 7.44625 0.783968 6.47365 0.783968C5.60716 0.783968 4.88214 1.04038 4.29858 1.5532C3.73271 2.06602 3.44977 2.75568 3.44977 3.62217C3.44977 4.36488 3.63545 4.99264 4.00681 5.50546C4.37816 6.0006 4.89982 6.4869 5.57179 6.96435C6.26145 7.42412 7.07489 7.95463 8.01212 8.55587C8.87861 9.12174 9.65668 9.68761 10.3463 10.2535C11.036 10.8017 11.5753 11.4117 11.9644 12.0837C12.3711 12.7557 12.5745 13.578 12.5745 14.5506C12.5745 15.7 12.2915 16.6549 11.7257 17.4153C11.1598 18.1757 10.3994 18.7416 9.44448 19.1129C8.48957 19.4843 7.44625 19.6699 6.3145 19.6699C5.27118 19.6699 4.44005 19.5638 3.82113 19.3516C3.21989 19.1394 2.69823 18.9184 2.25614 18.6885C1.8671 18.4409 1.56648 18.3172 1.35428 18.3172C1.17745 18.3172 1.04482 18.4144 0.956402 18.6089C0.885668 18.8035 0.823776 19.0952 0.770725 19.4843H0.160645C0.196012 19.0775 0.213695 18.6001 0.213695 18.0519C0.231379 17.5037 0.24022 16.7964 0.24022 15.9299C0.257904 15.0457 0.266746 13.9316 0.266746 12.5877H0.876826C0.94756 13.7194 1.14208 14.7805 1.46038 15.7707C1.79637 16.7433 2.30035 17.5302 2.97232 18.1315C3.66198 18.7327 4.57268 19.0333 5.70442 19.0333C6.32334 19.0333 6.88037 18.9272 7.37551 18.715C7.88833 18.4851 8.29505 18.1403 8.59567 17.6806C8.89629 17.2031 9.0466 16.6019 9.0466 15.8768C9.0466 15.1518 8.87861 14.5152 8.54262 13.967C8.20664 13.4188 7.73802 12.906 7.13678 12.4286C6.53554 11.9511 5.82821 11.4648 5.01476 10.9697C4.18364 10.4392 3.40557 9.89981 2.68054 9.35162C1.95552 8.80343 1.37196 8.18451 0.929877 7.49486C0.505473 6.78752 0.293271 5.93871 0.293271 4.94843C0.293271 3.85205 0.558523 2.95904 1.08903 2.26938C1.61953 1.56204 2.30919 1.04038 3.158 0.704392C4.02449 0.368406 4.94403 0.200412 5.91662 0.200412ZM25.8991 19.2986V18.7681C26.4827 18.7327 26.9159 18.662 27.1989 18.5559C27.4995 18.4498 27.694 18.2376 27.7824 17.9193C27.8885 17.601 27.9416 17.1235 27.9416 16.4869V3.33039C27.9416 2.6761 27.8885 2.19865 27.7824 1.89803C27.694 1.57973 27.4995 1.36752 27.1989 1.26142C26.9159 1.13764 26.4827 1.0669 25.8991 1.04922V0.518715C26.3766 0.536399 26.969 0.554082 27.6763 0.571766C28.3837 0.589449 29.091 0.598291 29.7983 0.598291C30.5764 0.598291 31.3014 0.589449 31.9734 0.571766C32.6631 0.554082 33.2112 0.536399 33.618 0.518715V1.04922C33.0521 1.0669 32.6188 1.13764 32.3182 1.26142C32.0353 1.36752 31.8408 1.57973 31.7347 1.89803C31.6286 2.19865 31.5755 2.6761 31.5755 3.33039V16.4869C31.5755 17.1235 31.6286 17.601 31.7347 17.9193C31.8408 18.2376 32.0353 18.4498 32.3182 18.5559C32.6188 18.662 33.0521 18.7327 33.618 18.7681V19.2986C33.2112 19.2632 32.6631 19.2455 31.9734 19.2455C31.3014 19.2279 30.5764 19.219 29.7983 19.219C29.091 19.219 28.3837 19.2279 27.6763 19.2455C26.969 19.2455 26.3766 19.2632 25.8991 19.2986ZM14.7055 19.2986V18.7681C15.289 18.7327 15.7223 18.662 16.0052 18.5559C16.3058 18.4498 16.5003 18.2376 16.5888 17.9193C16.6949 17.601 16.7479 17.1235 16.7479 16.4869V3.33039C16.7479 2.6761 16.6949 2.19865 16.5888 1.89803C16.5003 1.57973 16.3058 1.36752 16.0052 1.26142C15.7223 1.13764 15.289 1.0669 14.7055 1.04922V0.518715C15.1476 0.536399 15.7134 0.554082 16.4031 0.571766C17.0927 0.589449 17.8354 0.598291 18.6312 0.598291C19.3385 0.598291 20.037 0.589449 20.7267 0.571766C21.4164 0.554082 21.9822 0.536399 22.4243 0.518715V1.04922C21.8584 1.0669 21.4252 1.13764 21.1246 1.26142C20.8416 1.36752 20.6471 1.57973 20.541 1.89803C20.4349 2.19865 20.3819 2.6761 20.3819 3.33039V16.4869C20.3819 17.1235 20.4349 17.601 20.541 17.9193C20.6471 18.2376 20.8416 18.4498 21.1246 18.5559C21.4252 18.662 21.8584 18.7327 22.4243 18.7681V19.2986C21.9822 19.2632 21.4164 19.2455 20.7267 19.2455C20.037 19.2279 19.3385 19.219 18.6312 19.219C17.8354 19.219 17.0927 19.2279 16.4031 19.2455C15.7134 19.2455 15.1476 19.2632 14.7055 19.2986ZM18.923 10.1209V9.59035H29.4005V10.1209H18.923ZM44.6874 0.147362C46.4911 0.147362 48.0738 0.527557 49.4354 1.28795C50.797 2.04834 51.8492 3.14471 52.5919 4.57708C53.3523 5.99176 53.7325 7.7159 53.7325 9.7495C53.7325 11.7301 53.3435 13.463 52.5654 14.9485C51.805 16.4339 50.7351 17.5921 49.3558 18.4233C47.9942 19.2544 46.4292 19.6699 44.6609 19.6699C42.8572 19.6699 41.2745 19.2897 39.9128 18.5294C38.5512 17.769 37.4902 16.6726 36.7298 15.2402C35.9871 13.8079 35.6158 12.0837 35.6158 10.0678C35.6158 8.08725 36.0048 6.35427 36.7829 4.86886C37.5609 3.38344 38.6308 2.22517 39.9924 1.39405C41.3541 0.562924 42.919 0.147362 44.6874 0.147362ZM44.5813 0.624816C43.538 0.624816 42.6273 1.02269 41.8492 1.81845C41.0888 2.61421 40.4964 3.71059 40.072 5.10758C39.6476 6.50458 39.4354 8.12262 39.4354 9.9617C39.4354 11.8362 39.6741 13.4719 40.1516 14.8689C40.629 16.2482 41.2745 17.318 42.0879 18.0784C42.9014 18.8211 43.7944 19.1925 44.767 19.1925C45.8103 19.1925 46.7122 18.7946 47.4725 17.9989C48.2506 17.2031 48.8519 16.1067 49.2763 14.7097C49.7007 13.295 49.9129 11.677 49.9129 9.8556C49.9129 7.96347 49.6741 6.32774 49.1967 4.94843C48.7192 3.56912 48.0738 2.50811 47.2603 1.7654C46.4646 1.00501 45.5716 0.624816 44.5813 0.624816ZM55.7107 0.518715C56.1528 0.536399 56.7187 0.554082 57.4083 0.571766C58.098 0.589449 58.7876 0.598291 59.4773 0.598291C60.3438 0.598291 61.1661 0.589449 61.9441 0.571766C62.7222 0.554082 63.2704 0.54524 63.5887 0.54524C65.9583 0.54524 67.7178 1.03154 68.8672 2.00413C70.0343 2.97672 70.6179 4.23225 70.6179 5.77071C70.6179 6.40732 70.5029 7.07929 70.2731 7.78663C70.0432 8.47629 69.6453 9.12174 69.0794 9.72298C68.5135 10.3065 67.7355 10.784 66.7452 11.1553C65.7726 11.5267 64.5259 11.7124 63.0051 11.7124H60.3526V11.1819H62.7399C63.8539 11.1819 64.7028 10.9431 65.2863 10.4657C65.8875 9.98823 66.2854 9.36047 66.4799 8.58239C66.6921 7.80432 66.7982 6.96435 66.7982 6.06249C66.7982 4.38256 66.5242 3.12703 65.976 2.29591C65.4278 1.46478 64.4817 1.04922 63.1378 1.04922C62.4127 1.04922 61.9353 1.19953 61.7054 1.50015C61.4932 1.80077 61.3871 2.41085 61.3871 3.33039V16.3808C61.3871 17.0528 61.4578 17.5568 61.5993 17.8928C61.7408 18.2287 62.0149 18.4498 62.4216 18.5559C62.8283 18.662 63.4119 18.7239 64.1722 18.7416V19.2986C63.6594 19.2632 62.9963 19.2455 62.1829 19.2455C61.3694 19.2279 60.5294 19.219 59.663 19.219C58.9202 19.219 58.2041 19.2279 57.5144 19.2455C56.8248 19.2455 56.2235 19.2632 55.7107 19.2986V18.7681C56.2943 18.7327 56.7275 18.662 57.0104 18.5559C57.3111 18.4498 57.5056 18.2376 57.594 17.9193C57.7001 17.601 57.7531 17.1235 57.7531 16.4869V3.33039C57.7531 2.6761 57.7001 2.19865 57.594 1.89803C57.5056 1.57973 57.3111 1.36752 57.0104 1.26142C56.7275 1.13764 56.2943 1.0669 55.7107 1.04922V0.518715ZM79.8525 0.518715V1.04922C79.2866 1.0669 78.8534 1.13764 78.5528 1.26142C78.2698 1.36752 78.0753 1.57973 77.9692 1.89803C77.8631 2.19865 77.8101 2.6761 77.8101 3.33039V16.4869C77.8101 17.1235 77.8631 17.601 77.9692 17.9193C78.0753 18.2376 78.2698 18.4498 78.5528 18.5559C78.8534 18.662 79.2866 18.7327 79.8525 18.7681V19.2986C79.4104 19.2632 78.8445 19.2455 78.1549 19.2455C77.4652 19.2279 76.7667 19.219 76.0594 19.219C75.2636 19.219 74.5209 19.2279 73.8313 19.2455C73.1416 19.2455 72.5757 19.2632 72.1337 19.2986V18.7681C72.7172 18.7327 73.1505 18.662 73.4334 18.5559C73.734 18.4498 73.9285 18.2376 74.0169 17.9193C74.123 17.601 74.1761 17.1235 74.1761 16.4869V3.33039C74.1761 2.6761 74.123 2.19865 74.0169 1.89803C73.9285 1.57973 73.734 1.36752 73.4334 1.26142C73.1505 1.13764 72.7172 1.0669 72.1337 1.04922V0.518715C72.5757 0.536399 73.1416 0.554082 73.8313 0.571766C74.5209 0.589449 75.2636 0.598291 76.0594 0.598291C76.7667 0.598291 77.4652 0.589449 78.1549 0.571766C78.8445 0.554082 79.4104 0.536399 79.8525 0.518715Z" fill="#353638"/>
</svg>
