<svg xmlns="http://www.w3.org/2000/svg" version="1.1" xmlns:xlink="http://www.w3.org/1999/xlink" width="70" height="70"><svg width="70" height="70" viewBox="0 0 70 70" fill="none" xmlns="http://www.w3.org/2000/svg">
<rect width="70" height="70" fill="#C4F041"></rect>
<path d="M46.1045 12.983L46.1104 12.9698C46.3114 12.5275 46.4843 11.8322 46.6171 10.8593L46.6611 10.5368H46.9865H48.5299H48.9228L48.9023 10.9292C48.8573 11.7824 48.7899 12.7688 48.7006 13.888C48.6564 15.0024 48.6118 16.4951 48.5672 18.3671V18.3689V18.3797V18.3905V18.4013V18.4121V18.4229V18.4338V18.4446V18.4555V18.4663V18.4773V18.4881V18.4991V18.51V18.521V18.5319V18.5429V18.5539V18.5649V18.5759V18.5869V18.598V18.609V18.6201V18.6312V18.6423V18.6534V18.6645V18.6757V18.6868V18.698V18.7092V18.7204V18.7316V18.7428V18.754V18.7653V18.7765V18.7878V18.7991V18.8104V18.8218V18.8331V18.8444V18.8558V18.8672V18.8786V18.89V18.9014V18.9128V18.9243V18.9357V18.9472V18.9587V18.9702V18.9817V18.9932V19.0048V19.0163V19.0279V19.0395V19.0511V19.0627V19.0743V19.086V19.0976V19.1093V19.1209V19.1326V19.1443V19.1561V19.1678V19.1795V19.1913V19.2031V19.2149V19.2267V19.2385V19.2503V19.2622V19.274V19.2859V19.2978V19.3097V19.3216V19.3335V19.3455V19.3574V19.3694V19.3814V19.3934V19.4054V19.4175V19.4295V19.4415V19.4536V19.4657V19.4778V19.4899V19.502V19.5142V19.5263V19.5385V19.5506V19.5628V19.575V19.5873V19.5995V19.6117V19.624V19.6363V19.6486V19.6609V19.6732V19.6855V19.6978V19.7102V19.7226V19.735V19.7474V19.7598V19.7722V19.7846V19.7971V19.8096V19.8221V19.8345V19.8471V19.8596V19.8721V19.8847V19.8972V19.9098V19.9224V19.935V19.9476V19.9603V19.9729V19.9856V19.9982V20.0109V20.0236V20.0363V20.0491V20.0618V20.0746V20.0874V20.1001V20.113V20.1258V20.1386V20.1514V20.1643V20.1772V20.1901V20.203V20.2159V20.2288V20.2417V20.2547V20.2676V20.2806V20.2936V20.3066V20.3196V20.3326V20.3457V20.3588V20.3719V20.385V20.398V20.4112V20.4243V20.4374V20.4506V20.4638V20.477V20.4902V20.5034V20.5166V20.5299V20.5431V20.5564V20.5696V20.5829V20.5963V20.6096V20.6229V20.6363V20.6496V20.663V20.6764V20.6898V20.7032V20.7167V20.7301V20.7436V20.7571V20.7706V20.7841V20.7976V20.8111V20.8247V20.8382V20.8518V20.8654V20.879V20.8926V20.9062V20.9199V20.9335V20.9472V20.9609V20.9746V20.9883V21.002V21.0158V21.0295V21.0433V21.0571V21.0709V21.0847V21.0985V21.1123V21.1262V21.1401V21.1539V21.1678V21.1817V21.1956V21.2096V21.2235V21.2375V21.2515V21.2654V21.2795V21.2935V21.3075V21.3215V21.3356V21.3497V21.3637V21.3779V21.392V21.4061V21.4203V21.4344V21.4486V21.4628V21.4769V21.4912V21.5054V21.5196V21.5338V21.5481V21.5624V21.5767V21.591V21.6053V21.6197V21.634V21.6484V21.6628V21.6771V21.6915V21.706V21.7204V21.7348V21.7493V21.7638V21.7783V21.7928V21.8073V21.8218V21.8363V21.8509V21.8655V21.88V21.8946V21.9093V21.9239V21.9385V21.9532V21.9678V21.9825V21.9972V22.0119V22.0266V22.0414V22.0561V22.0709V22.0857V22.1004V22.1152V22.1301V22.1449V22.1597V22.1746V22.1895V22.2044V22.2193V22.2342V22.2491V22.2641V22.279V22.294V22.309V22.324V22.339V22.354V22.369V22.3841V22.3992V22.4142V22.4293V22.4445V22.4596V22.4747V22.4899V22.505V22.5202V22.5354V22.5507V22.566V22.5809V22.5962V22.6115V22.6268V22.642V22.6573V22.6726V22.6879V22.7035V22.7188V22.7341V22.7494V22.7651V22.7803V22.7956V22.8113V22.8266V22.8422V22.8575V22.8732V22.8885V22.9041V22.9198V22.9351V22.9507V22.9664V22.982V22.9977V23.0133V23.0286V23.0443V23.0599V23.0756V23.0916V23.1073V23.1229V23.1386V23.1543V23.1703V23.186V23.2016V23.2176V23.2333V23.249V23.265V23.2806V23.2967V23.3127V23.3284V23.3444V23.3604V23.3761V23.3921V23.4081V23.4242V23.4402V23.4562V23.4723V23.4883V23.5043V23.5204V23.5364V23.5524V23.5684V23.5848V23.6009V23.6169V23.6329V23.6493V23.6654V23.6818V23.6978V23.7142V23.7302V23.7466V23.763V23.7791V23.7955V23.8119V23.8279V23.8443V23.8607V23.8771V23.8935V23.9099V23.9263V23.9427V23.9591V23.9755V23.9919V24.0087V24.0251V24.0415V24.0579V24.0747V24.0911V24.1079V24.1243V24.1411V24.1575V24.1742V24.1906V24.2074V24.2242V24.2406V24.2574V24.2742V24.2909V24.3077V24.3241V24.3409V24.3577V24.3744V24.3912V24.408V24.4251V24.4419V24.4587V24.4755V24.4922V24.5094V24.5262V24.5433V24.5601V24.5769V24.594V24.6108V24.6279V24.6451V24.6619V24.679V24.6962V24.7129V24.7301V24.7472V24.7644V24.7815V24.7987V24.8158V24.833V24.8501V24.8673V24.8844V24.9016V24.9187V24.9362V24.9534V24.9705V24.9881V25.0052V25.0224V25.0399V25.057V25.0746V25.0917V25.1092V25.1268V25.1439V25.1614V25.1789V25.1965V25.2136V25.2311V25.2487V25.2662V25.2837V25.3012V25.3187V25.3363V25.3538V25.3717V25.3892V25.4067V25.4242V25.4421V25.4597V25.4772V25.4951V25.5126V25.5305V25.548V25.5659V25.5834V25.6013V25.6192V25.6367V25.6546V25.6725V26.0453H48.1944H46.651H46.2994L46.2789 25.6945C46.1473 23.4555 45.6426 21.3055 44.7646 19.2423L44.7631 19.2392L44.762 19.2361C43.9333 17.1857 42.7377 15.5153 41.1783 14.2157L41.1738 14.2121L41.1697 14.2084C39.6837 12.8923 37.7638 12.2219 35.3775 12.2219C33.2671 12.2219 31.5249 12.8433 30.1254 14.0713L30.1255 14.0714C28.7827 15.2881 28.1004 16.9267 28.1004 19.0292C28.1004 20.8436 28.553 22.3517 29.4388 23.5748L29.4387 23.5748C30.347 24.7846 31.6314 25.9855 33.3034 27.1745C35.0458 28.3361 37.1012 29.6766 39.4708 31.1967L39.4735 31.1986C41.673 32.6348 43.651 34.0734 45.4066 35.5134L45.4066 35.5133C47.1809 36.9238 48.5769 38.4995 49.5869 40.2425L49.5872 40.2423C50.6586 42.0131 51.1842 44.1638 51.1842 46.6761C51.1842 49.6466 50.4521 52.1451 48.9631 54.1459C47.4864 56.1303 45.5039 57.6029 43.0281 58.5655C40.565 59.5232 37.8794 60 34.9749 60C32.3157 60 30.1669 59.7305 28.5463 59.1746L28.5429 59.1735C27.01 58.6322 25.6735 58.0667 24.5361 57.475L24.5215 57.4676L24.5078 57.459C23.528 56.8353 22.8473 56.5777 22.4264 56.5777C22.2758 56.5777 22.1587 56.6176 22.0596 56.6899C21.9592 56.7637 21.8574 56.8861 21.766 57.0824C21.6025 57.5369 21.4515 58.2395 21.3196 59.2078L21.2756 59.5303H20.9501H19.4067H19L19.0354 59.125C19.1238 58.1099 19.1681 56.9132 19.1681 55.5339V55.5279L19.1685 55.5219C19.2129 54.1407 19.2352 52.3557 19.2352 50.1655V50.1618V50.1581C19.28 47.9246 19.3023 45.1089 19.3023 41.7104V41.3376H19.6751H21.2185H21.569L21.5906 41.6873C21.7676 44.5206 22.2544 47.1729 23.0485 49.6449C23.8803 52.0507 25.1212 53.9824 26.7647 55.4541C28.4266 56.9028 30.6362 57.6439 33.4315 57.6439C34.952 57.6439 36.3083 57.3837 37.5066 56.8712L37.5066 56.8711C38.7395 56.3187 39.7115 55.4939 40.432 54.3933C41.1445 53.2599 41.5138 51.8135 41.5138 50.0313C41.5138 48.2568 41.1033 46.7156 40.2936 45.3948C39.4705 44.0512 38.3167 42.7856 36.8232 41.5997C35.3167 40.4034 33.5407 39.1821 31.4929 37.9354L31.4896 37.9336L31.4862 37.9313C29.3762 36.5844 27.3996 35.2144 25.5568 33.8212C23.6913 32.4105 22.1837 30.8131 21.0388 29.0277L21.0359 29.0229L21.0333 29.018C19.9182 27.1604 19.3694 24.9437 19.3694 22.3844C19.3694 19.5503 20.0558 17.2048 21.4597 15.3796L21.4598 15.3797C22.8444 13.5351 24.6445 12.175 26.8523 11.3011L26.8549 11.3002C29.0917 10.4328 31.4638 10 33.9683 10C36.4914 10 38.4706 10.2691 39.8776 10.8319C41.2337 11.3743 42.4165 11.9646 43.4229 12.6044C43.9412 12.9068 44.3541 13.1459 44.6619 13.322C44.976 13.4368 45.2577 13.4894 45.5102 13.4894C45.6612 13.4894 45.7675 13.4496 45.8502 13.3845C45.9375 13.316 46.0262 13.1975 46.0992 12.9967L46.1045 12.983Z" fill="black"></path>
</svg><style>@media (prefers-color-scheme: light) { :root { filter: none; } }
@media (prefers-color-scheme: dark) { :root { filter: none; } }
</style></svg>